<?xml version="1.0" encoding="utf-8"?>
<!-- Generator: Adobe Illustrator 27.8.0, SVG Export Plug-In . SVG Version: 6.00 Build 0)  -->
<svg version="1.1" id="Layer_3" xmlns="http://www.w3.org/2000/svg" xmlns:xlink="http://www.w3.org/1999/xlink" x="0px" y="0px"
	 viewBox="0 0 259.4 53.2" style="enable-background:new 0 0 259.4 53.2;" xml:space="preserve">
<style type="text/css">
	.st0{fill:#FFFFFF;}
</style>
<path class="st0" d="M257.3,2.1v49.1H2.1V2.1H257.3 M259.4,0H0v53.2h259.4V0L259.4,0z"/>
<g>
	<path class="st0" d="M18.5,25.5c0-1.3,0.2-2.5,0.7-3.7c0.4-1.2,1.1-2.3,1.9-3.3c0.8-1,1.9-1.8,3.1-2.4c1.2-0.6,2.6-0.9,4.2-0.9
		c1.9,0,3.4,0.4,4.8,1.3c1.3,0.9,2.3,1.9,2.9,3.3l-1.6,1c-0.5-0.9-1-1.6-1.7-2.2c-0.7-0.5-1.4-0.9-2.2-1.2C29.8,17.1,29,17,28.3,17
		c-1.3,0-2.4,0.2-3.3,0.7c-1,0.5-1.8,1.2-2.4,2c-0.7,0.8-1.1,1.8-1.5,2.8c-0.3,1-0.5,2.1-0.5,3.1c0,1.2,0.2,2.3,0.6,3.3
		c0.4,1.1,0.9,2,1.6,2.8c0.7,0.8,1.5,1.5,2.5,1.9s2,0.7,3.1,0.7c0.8,0,1.6-0.1,2.4-0.4c0.8-0.3,1.6-0.7,2.3-1.3
		c0.7-0.6,1.3-1.3,1.7-2.2l1.7,0.9c-0.4,1-1.1,1.9-2,2.6c-0.9,0.7-1.9,1.3-3,1.6c-1.1,0.4-2.2,0.6-3.2,0.6c-1.4,0-2.7-0.3-3.9-0.9
		c-1.2-0.6-2.2-1.4-3.1-2.5c-0.9-1-1.5-2.2-2-3.5C18.7,28.1,18.5,26.9,18.5,25.5z"/>
	<path class="st0" d="M39,36.1V15.3h8.8c0.9,0,1.7,0.2,2.5,0.6c0.7,0.4,1.4,0.9,2,1.5s1,1.3,1.3,2.1c0.3,0.8,0.5,1.6,0.5,2.4
		c0,1-0.2,1.9-0.6,2.8s-0.9,1.6-1.6,2.2c-0.7,0.6-1.5,1-2.5,1.2l5.1,8h-2.3l-4.9-7.7H41v7.7H39z M41,26.6h6.8c0.8,0,1.5-0.2,2.1-0.7
		c0.6-0.5,1.1-1,1.4-1.8c0.3-0.7,0.5-1.5,0.5-2.3c0-0.8-0.2-1.6-0.6-2.3c-0.4-0.7-0.9-1.3-1.5-1.7c-0.6-0.4-1.3-0.7-2.1-0.7H41V26.6
		z"/>
	<path class="st0" d="M71.6,34.3v1.8h-14V15.3h13.7v1.8H59.6v7.5h10.2v1.7H59.6v8H71.6z"/>
	<path class="st0" d="M81.3,15.3H83l8.7,20.8h-2.2l-2.6-6.5h-9.5l-2.6,6.5h-2.2L81.3,15.3z M86.3,28l-4.1-10.3L78,28H86.3z"/>
	<path class="st0" d="M106.3,17.1h-7.4v19h-2.1v-19h-7.4v-1.8h16.9V17.1z"/>
	<path class="st0" d="M109.4,36.1V15.3h2.1v20.8H109.4z"/>
	<path class="st0" d="M116.6,15.3l7.5,18.3l7.4-18.3h2.1L125,36.1h-1.9l-8.7-20.8H116.6z"/>
	<path class="st0" d="M150.1,34.3v1.8h-14V15.3h13.7v1.8h-11.7v7.5h10.2v1.7h-10.2v8H150.1z"/>
</g>
<g>
	<path class="st0" d="M152.6,36.1V15.3h8.9c1,0,1.9,0.2,2.7,0.6c0.8,0.4,1.5,0.9,2.2,1.6c0.6,0.7,1.1,1.4,1.4,2.3
		c0.3,0.8,0.5,1.7,0.5,2.6c0,1.2-0.3,2.3-0.8,3.4c-0.6,1.1-1.3,2-2.3,2.6c-1,0.7-2.1,1-3.5,1h-4.3v6.7H152.6z M157.4,25.2h3.9
		c0.4,0,0.7-0.1,1-0.3c0.3-0.2,0.6-0.5,0.7-1c0.2-0.4,0.3-0.9,0.3-1.6c0-0.7-0.1-1.2-0.3-1.6s-0.5-0.7-0.8-0.9
		c-0.3-0.2-0.7-0.3-1.1-0.3h-3.8V25.2z"/>
	<path class="st0" d="M178.8,36.3c-1.7,0-3.1-0.3-4.3-0.8s-2.1-1.3-2.9-2.3c-0.7-1-1.3-2.1-1.6-3.3s-0.5-2.5-0.5-3.9V15.3h4.8v10.6
		c0,0.8,0.1,1.6,0.2,2.3c0.2,0.7,0.4,1.4,0.7,1.9s0.8,1,1.4,1.3c0.6,0.3,1.3,0.5,2.1,0.5c0.8,0,1.5-0.2,2.1-0.5
		c0.6-0.3,1-0.8,1.4-1.4c0.3-0.6,0.6-1.2,0.8-2c0.2-0.7,0.2-1.5,0.2-2.2V15.3h4.8v10.6c0,1.4-0.2,2.8-0.5,4
		c-0.4,1.2-0.9,2.3-1.7,3.3c-0.7,1-1.7,1.7-2.9,2.2C181.8,36,180.4,36.3,178.8,36.3z"/>
	<path class="st0" d="M191.1,36.1V15.3h4.8v16.6H206v4.2H191.1z"/>
	<path class="st0" d="M220.7,21.4c-0.1-0.1-0.3-0.2-0.6-0.4c-0.4-0.2-0.8-0.5-1.3-0.7c-0.5-0.2-1.1-0.4-1.7-0.6
		c-0.6-0.2-1.3-0.2-1.9-0.2c-0.8,0-1.5,0.1-1.9,0.4c-0.5,0.3-0.7,0.7-0.7,1.3c0,0.4,0.2,0.8,0.5,1.1c0.3,0.3,0.8,0.5,1.5,0.7
		c0.6,0.2,1.4,0.4,2.4,0.7c1.3,0.4,2.5,0.8,3.5,1.3c1,0.5,1.7,1.1,2.2,1.9c0.5,0.8,0.8,1.8,0.8,3.1c0,1.1-0.2,2.1-0.6,3
		c-0.4,0.8-1,1.5-1.8,2c-0.8,0.5-1.6,0.9-2.5,1.1s-1.9,0.3-2.9,0.3c-1,0-2.1-0.1-3.1-0.3c-1.1-0.2-2.1-0.5-3.1-0.9s-1.9-0.8-2.7-1.4
		l2.1-4.2c0.1,0.1,0.4,0.3,0.8,0.6c0.4,0.3,1,0.5,1.6,0.8c0.6,0.3,1.3,0.5,2.1,0.8c0.8,0.2,1.6,0.3,2.3,0.3c0.9,0,1.5-0.1,2-0.4
		c0.4-0.3,0.6-0.7,0.6-1.1c0-0.5-0.2-0.9-0.7-1.2c-0.4-0.3-1-0.6-1.8-0.8s-1.6-0.5-2.6-0.8c-1.3-0.4-2.3-0.9-3.2-1.3
		c-0.8-0.5-1.4-1.1-1.8-1.8c-0.4-0.7-0.6-1.6-0.6-2.6c0-1.5,0.3-2.7,1-3.7c0.7-1,1.6-1.8,2.8-2.3c1.2-0.5,2.5-0.8,3.8-0.8
		c1,0,1.9,0.1,2.8,0.4c0.9,0.2,1.8,0.5,2.6,0.9c0.8,0.4,1.5,0.7,2.1,1.1L220.7,21.4z"/>
	<path class="st0" d="M239.5,31.9v4.2h-14.6V15.3h14.4v4.2h-9.6v4.1h8.2v3.9h-8.2v4.4H239.5z"/>
</g>
</svg>
