<?xml version="1.0" encoding="utf-8"?>
<!-- Generator: Adobe Illustrator 27.5.0, SVG Export Plug-In . SVG Version: 6.00 Build 0)  -->
<svg version="1.1" id="Layer_1" xmlns="http://www.w3.org/2000/svg" xmlns:xlink="http://www.w3.org/1999/xlink" x="0px" y="0px"
	 viewBox="0 0 49 49" style="enable-background:new 0 0 49 49;" xml:space="preserve">
<style type="text/css">
	.st0{fill:#F47832;}
	.st1{fill:#FFFFFF;}
</style>
<rect class="st0" width="49" height="49"/>
<g>
	<path class="st1" d="M6.1,23.7c0-1.3,0.2-2.7,0.7-4c0.5-1.3,1.1-2.5,2-3.5c0.9-1.1,2-1.9,3.3-2.5s2.8-0.9,4.4-0.9
		c2,0,3.6,0.4,5,1.3c1.4,0.9,2.4,2.1,3.1,3.5l-1.7,1.1c-0.5-1-1.1-1.7-1.8-2.3c-0.7-0.6-1.5-1-2.3-1.2s-1.6-0.4-2.4-0.4
		c-1.3,0-2.5,0.3-3.5,0.8c-1,0.5-1.9,1.2-2.6,2.1c-0.7,0.9-1.2,1.9-1.6,2.9c-0.4,1.1-0.5,2.2-0.5,3.3c0,1.2,0.2,2.4,0.6,3.5
		c0.4,1.1,1,2.1,1.7,3c0.7,0.9,1.6,1.5,2.6,2c1,0.5,2.1,0.8,3.3,0.8c0.8,0,1.7-0.1,2.5-0.4c0.9-0.3,1.7-0.7,2.4-1.3
		c0.8-0.6,1.4-1.4,1.8-2.3l1.8,0.9c-0.5,1.1-1.2,2-2.1,2.8c-1,0.8-2,1.3-3.2,1.7s-2.3,0.6-3.4,0.6c-1.5,0-2.9-0.3-4.2-1
		c-1.3-0.7-2.4-1.5-3.3-2.6s-1.6-2.3-2.1-3.7C6.3,26.5,6.1,25.1,6.1,23.7z"/>
</g>
<g>
	<path class="st1" d="M28.3,34.9v-22h9.4c1.1,0,2,0.2,2.9,0.7c0.9,0.4,1.6,1,2.3,1.7s1.2,1.5,1.5,2.4c0.4,0.9,0.5,1.8,0.5,2.7
		c0,1.2-0.3,2.4-0.9,3.6s-1.4,2.1-2.4,2.8c-1,0.7-2.3,1.1-3.7,1.1h-4.5v7.1H28.3z M33.4,23.4h4.2c0.4,0,0.7-0.1,1.1-0.3
		c0.3-0.2,0.6-0.6,0.8-1c0.2-0.5,0.3-1,0.3-1.6c0-0.7-0.1-1.3-0.3-1.7c-0.2-0.4-0.5-0.8-0.9-1c-0.4-0.2-0.7-0.3-1.1-0.3h-4V23.4z"/>
</g>
</svg>
