<?xml version="1.0" standalone="no"?>
<!DOCTYPE svg PUBLIC "-//W3C//DTD SVG 20010904//EN"
 "http://www.w3.org/TR/2001/REC-SVG-20010904/DTD/svg10.dtd">
<svg version="1.0" xmlns="http://www.w3.org/2000/svg"
 width="512.000000pt" height="512.000000pt" viewBox="0 0 512.000000 512.000000"
 preserveAspectRatio="xMidYMid meet">
<metadata>
Created by potrace 1.14, written by Peter Selinger 2001-2017
</metadata>
<g transform="translate(0.000000,512.000000) scale(0.100000,-0.100000)"
fill="#000000" stroke="none">
<path d="M0 2560 l0 -2560 2560 0 2560 0 0 2560 0 2560 -2560 0 -2560 0 0
-2560z m2000 1195 c153 -41 317 -139 421 -253 53 -58 149 -199 149 -217 -1 -9
-159 -115 -172 -115 -3 0 -25 30 -49 68 -60 92 -164 192 -248 236 -38 20 -113
48 -167 63 -87 25 -116 28 -239 28 -134 -1 -144 -2 -242 -36 -139 -49 -202
-88 -308 -194 -225 -224 -322 -531 -274 -871 35 -255 192 -528 377 -655 152
-105 296 -152 467 -153 126 0 191 12 309 58 151 59 276 162 351 287 21 35 40
66 41 67 2 3 166 -82 182 -94 5 -4 -38 -85 -71 -134 -105 -154 -267 -267 -487
-339 -146 -47 -264 -64 -400 -58 -193 10 -322 54 -498 170 -175 115 -291 248
-392 452 -78 158 -101 267 -107 520 -7 269 17 384 127 611 123 252 310 427
560 520 139 53 218 64 425 60 130 -3 198 -8 245 -21z m2165 -18 c118 -47 204
-105 300 -201 102 -103 141 -164 188 -292 31 -86 32 -94 32 -249 0 -155 -1
-163 -34 -257 -102 -296 -317 -489 -587 -528 -38 -5 -183 -10 -321 -10 l-253
0 0 -370 0 -370 -267 2 -268 3 -3 1153 -2 1153 572 -3 573 -3 70 -28z"/>
<path d="M3500 2985 l0 -305 240 0 c272 0 285 3 343 70 52 61 71 126 71 241 0
89 -3 102 -33 163 -60 122 -100 136 -397 136 l-224 0 0 -305z"/>
</g>
</svg>
